<svg xmlns="http://www.w3.org/2000/svg" xmlns:xlink="http://www.w3.org/1999/xlink" version="1.1" id="Layer_1" x="0px" y="0px" width="100%" viewBox="0 0 375 514" enable-background="new 0 0 375 514" xml:space="preserve">

<path fill="#5047E5" opacity="1.000000" stroke="none" d=" M188.998505,261.999237   C159.477661,261.324677 137.897827,247.894852 123.635315,222.980286   C117.376068,212.046265 114.589233,199.629257 115.146553,187.081314   C116.557907,155.305069 134.575302,128.611679 166.605103,119.070518   C192.185486,111.450539 215.559555,116.234642 236.174088,133.634109   C255.376953,149.842087 263.510040,170.838242 261.789368,195.369095   C260.744812,210.260635 254.909424,223.712524 245.164536,235.484802   C230.616013,253.060074 211.806335,261.077362 188.998505,261.999237  z"/>
<path fill="#3370FF" opacity="1.000000" stroke="none" d=" M221.224579,279.216980   C226.291580,272.287781 233.028854,271.328308 240.863388,270.768280   C268.861908,268.766937 294.536011,259.727783 317.424530,243.126373   C330.164948,233.885544 341.139740,222.924683 350.757050,210.533829   C351.340912,209.781570 351.769775,208.862991 352.479065,208.271729   C352.890167,207.929016 353.717682,208.085861 355.485260,207.898132   C338.537292,251.013626 309.364685,281.430389 267.679993,299.567596   C243.302582,310.174286 217.694504,314.339264 191.260437,311.266998   C191.070999,310.749725 190.881561,310.232452 190.692139,309.715210   C200.785812,299.632507 210.879486,289.549805 221.224579,279.216980  z"/>
<path fill="#3270FF" opacity="1.000000" stroke="none" d=" M140.569794,106.966446   C116.281578,107.363831 94.390465,114.218407 73.534843,125.653931   C58.453751,133.923172 45.957081,145.040451 34.278976,157.306488   C30.721916,161.042633 27.692831,165.281448 24.421942,169.290039   C23.865847,169.013092 23.309752,168.736160 22.753656,168.459213   C23.935492,165.062393 24.789623,161.505630 26.356081,158.296570   C33.013855,144.657364 41.023918,131.953903 50.970768,120.339485   C65.736176,103.098679 83.546654,90.163445 103.922783,80.599556   C118.119225,73.936226 132.904541,68.920959 148.560745,67.077171   C154.888565,66.331947 161.305923,66.363754 167.678650,65.977577   C172.107025,65.709221 176.524658,65.206734 180.955383,65.061043   C182.813263,64.999954 184.692596,65.590820 187.508041,66.034279   C179.362732,74.164215 171.854279,81.657059 164.347641,89.151726   C161.519318,91.975540 158.707733,94.816261 155.866165,97.626656   C151.613022,101.833130 147.946121,106.985611 140.569794,106.966446  z"/>
<path fill="#3370FF" opacity="1.000000" stroke="none" d=" M226.242737,39.739105   C219.745392,34.254738 213.499893,29.025549 206.989075,23.574217   C223.040695,21.687891 270.019165,58.597832 287.511871,87.180832   C306.177338,117.680138 315.180511,150.736938 311.836212,187.594498   C310.314972,186.415588 309.271942,185.769577 308.425079,184.926529   C296.746338,173.300339 285.032196,161.708038 273.516998,149.921509   C272.112976,148.484406 271.161438,145.987778 271.099945,143.948990   C270.133606,111.907425 259.914703,83.016106 241.384628,57.063152   C237.018082,50.947418 231.488892,45.661797 226.242737,39.739105  z"/>
<path fill="#3270FF" opacity="1.000000" stroke="none" d=" M167.182892,354.649719   C152.040344,348.385162 138.006180,340.798431 125.491013,330.780884   C110.127495,318.483459 97.383575,303.732666 87.326042,286.793823   C78.551949,272.016510 72.579498,256.116058 68.614342,239.371826   C64.853951,223.492325 64.651314,207.467789 65.181488,190.094971   C67.052353,191.778152 68.229050,192.746246 69.303200,193.817169   C80.750572,205.230179 92.116417,216.726181 103.669716,228.030701   C106.118988,230.427216 107.112068,232.808762 107.078247,236.258087   C106.846046,259.934570 113.392296,281.994720 124.432205,302.653687   C135.390747,323.160400 150.797592,339.962646 170.114319,353.635223   C169.088181,354.121948 168.275650,354.507355 167.182892,354.649719  z"/>
<path fill="#FFFFFF" opacity="1.000000" stroke="none" d=" M198.023834,422.075500   C195.261459,434.210693 192.520248,445.918915 189.738663,457.799622   C186.045395,457.799622 182.412857,457.799622 178.269333,457.799622   C174.446823,443.252258 170.583725,428.550507 166.524872,413.103668   C162.451172,428.470551 158.569382,443.113495 154.691757,457.740814   C154.012894,457.842438 153.528366,457.966339 153.040665,457.980469   C143.348511,458.261230 143.229019,458.287476 140.910782,448.695465   C137.509094,434.620636 134.331528,420.491699 130.947968,406.412354   C130.653656,405.187653 129.482788,403.159302 128.813339,403.196625   C122.446579,403.551147 124.169548,399.135773 124.071686,395.028656   C130.214050,395.028656 136.313721,394.859772 142.384018,395.205994   C143.323273,395.259521 145.007080,397.840576 144.794998,398.958435   C144.450485,400.774200 142.823669,402.346710 141.738129,404.021881   C141.085129,403.838684 140.432114,403.655487 139.779099,403.472290   C142.945084,417.138794 146.111069,430.805298 149.277039,444.471802   C149.579346,444.546722 149.881653,444.621674 150.183975,444.696594   C153.773682,430.960571 157.363403,417.224518 161.064392,403.062683   C154.281891,404.145477 154.625351,399.995758 155.247116,395.028870   C162.550308,395.028870 169.979004,394.910156 177.393387,395.182129   C178.299789,395.215363 179.811768,397.337830 179.822586,398.503418   C179.836273,399.977295 178.851364,401.693237 177.797348,402.848907   C177.245758,403.453644 175.624985,403.083191 173.551804,403.210693   C177.138367,417.112488 180.636444,430.671265 184.134537,444.230072   C184.482040,444.286133 184.829544,444.342163 185.177063,444.398193   C188.325882,430.781403 191.474686,417.164612 194.686615,403.274933   C188.206833,403.532928 190.208908,399.019318 190.103958,395.003326   C194.990494,395.003326 199.620499,395.073914 204.247009,394.976929   C207.035110,394.918488 209.082687,395.133148 209.083450,398.850067   C209.084152,402.268707 207.645264,403.323456 204.548309,403.015137   C203.909943,402.951569 203.251205,403.092377 202.529587,403.144196   C201.020462,409.371216 199.532745,415.509857 198.023834,422.075500  z"/>
<path fill="#FFFFFF" opacity="1.000000" stroke="none" d=" M296.928894,445.835876   C300.729675,431.494659 304.498596,417.570679 308.349396,403.344177   C306.061096,403.121735 304.289764,402.949554 302.260529,402.752289   C302.260529,400.300201 302.260529,397.896423 302.260529,395.018402   C308.329193,395.018402 314.293915,394.794403 320.214783,395.204376   C321.421967,395.287964 323.062561,397.591614 323.487457,399.149017   C326.809906,411.327728 329.893890,423.571625 333.030090,435.800903   C334.075134,439.876038 335.047058,443.969879 336.071930,448.050293   C337.125061,452.243103 340.202393,451.010712 343.698700,450.297516   C343.816132,452.881531 343.921722,455.204254 344.037354,457.748535   C336.504486,457.748535 329.425537,457.748535 322.373718,457.748535   C321.651611,450.765045 321.651611,450.765045 327.550720,449.653290   C326.610626,446.240051 325.675049,442.825592 324.627258,439.001556   C319.632965,439.001556 314.491089,438.902954 309.358704,439.079987   C308.256134,439.118042 306.519440,439.920349 306.224213,440.769958   C305.167236,443.811920 304.603912,447.025360 303.778107,450.492249   C305.618286,450.807343 307.146027,451.068970 308.817322,451.355164   C308.817322,453.464478 308.817322,455.417969 308.817322,457.685059   C302.383667,457.685059 295.979279,457.685059 289.287445,457.685059   C289.287445,455.741913 289.287445,453.817383 289.287445,451.454102   C291.689728,449.993713 296.299896,450.898010 296.928894,445.835876  M308.918884,431.287476   C308.613892,432.005280 308.308929,432.723083 307.901978,433.680847   C313.124023,433.680847 317.972504,433.680847 323.249634,433.680847   C320.689117,424.417145 318.241791,415.562897 315.551025,405.827972   C313.203400,414.633209 311.095337,422.539856 308.918884,431.287476  z"/>
<path fill="#FFFFFF" opacity="1.000000" stroke="none" d=" M48.219627,438.997467   C42.065376,439.089783 40.683903,441.153137 40.141289,450.621582   C41.541706,450.816223 42.966080,451.014221 44.695602,451.254639   C44.695602,453.264709 44.695602,455.344879 44.695602,457.713562   C38.310944,457.713562 31.908697,457.713562 25.253708,457.713562   C25.253708,455.681305 25.253708,453.750305 25.253708,451.161743   C34.221500,451.758942 33.160084,443.886932 34.829205,438.614624   C38.157295,428.102142 40.780125,417.365601 43.641060,406.707306   C43.921127,405.663940 43.831131,404.521240 43.929569,403.201141   C42.001907,403.076813 40.367344,402.971405 38.362572,402.842102   C38.362572,400.483429 38.362572,398.088318 38.362572,395.027405   C44.250984,395.027405 50.360573,394.804382 56.426258,395.220825   C57.600021,395.301422 59.161045,397.728363 59.596947,399.330505   C63.843449,414.937927 68.161362,430.536682 71.825081,446.285339   C72.926117,451.018250 74.695374,451.913055 79.408791,450.064362   C79.680283,452.661377 79.925133,455.003510 80.206154,457.691620   C72.767990,457.691620 65.691223,457.691620 58.612316,457.690247   C57.347870,451.028137 57.453918,450.858887 63.561447,449.598572   C62.603996,446.178162 61.643700,442.747620 60.593945,438.997467   C56.640347,438.997467 52.664806,438.997467 48.219627,438.997467  M57.048546,433.993744   C57.611050,433.149109 58.810818,432.136780 58.639366,431.485260   C56.463642,423.217896 54.090797,415.002380 51.541492,405.970581   C48.913414,415.697906 46.500458,424.628998 43.968311,434.001282   C48.232738,434.001282 52.185757,434.001282 57.048546,433.993744  z"/>
<path fill="#FFFFFF" opacity="1.000000" stroke="none" d=" M216.806610,454.307465   C210.161484,449.932861 210.299683,443.828522 211.415771,436.986420   C212.896561,436.986420 214.362167,437.104218 215.802307,436.962799   C219.175430,436.631470 220.041733,438.252289 220.059418,441.390869   C220.103180,449.160004 222.312286,451.265015 230.169006,450.928711   C233.194244,450.799225 236.478729,450.436737 239.122192,449.125916   C243.265915,447.071106 244.905945,434.638885 241.641571,431.317810   C240.424759,430.079865 238.323868,429.215454 236.566040,429.100677   C231.922577,428.797546 227.246185,429.007690 222.582962,428.995422   C215.520523,428.976807 211.025482,424.470581 211.003647,417.398315   C210.995422,414.733643 211.268372,412.035828 210.942413,409.411621   C210.398956,405.036377 212.194641,402.068573 215.220703,399.042847   C218.134140,396.129822 220.941681,394.354370 225.162170,394.945190   C227.449005,395.265320 229.914322,395.429138 232.131760,394.925934   C240.297028,393.072815 245.457642,397.666962 249.599365,403.386047   C251.044006,405.380829 250.572906,408.936981 250.420273,411.749908   C250.393616,412.241119 247.548798,413.010376 246.092438,412.852051   C244.994308,412.732635 243.495270,411.535492 243.104675,410.475433   C241.114761,405.074860 238.408478,402.964569 232.628937,403.013885   C229.824219,403.037811 226.789917,402.590057 224.269775,403.496460   C220.230896,404.949097 217.982819,417.014954 220.977844,420.286560   C221.919739,421.315399 223.814194,421.856873 225.305038,421.926361   C229.792007,422.135376 234.318039,422.284821 238.784943,421.920105   C242.977966,421.577789 245.889862,422.981049 248.742950,426.027283   C251.081451,428.524078 252.400040,430.854858 252.054733,434.303558   C251.774063,437.106720 251.688339,440.002411 252.065842,442.782410   C252.733749,447.700989 250.827484,451.104797 247.342514,454.471863   C244.587311,457.133820 241.936661,458.298706 238.198883,458.061432   C233.886093,457.787628 229.524506,457.754150 225.218124,458.074188   C221.729446,458.333466 219.092194,457.359833 216.806610,454.307465  z"/>
<path fill="#FFFFFF" opacity="1.000000" stroke="none" d=" M90.997482,403.158936   C89.191391,403.061493 87.385307,402.964050 85.291946,402.851105   C85.291946,400.377289 85.291946,397.974640 85.291946,395.007690   C91.543694,395.007690 97.798882,394.842468 104.028267,395.169220   C105.075203,395.224121 106.824738,397.429169 106.792511,398.600677   C106.751694,400.084137 105.447166,401.773499 104.238403,402.885834   C103.603989,403.469604 102.010933,403.011658 100.085083,403.327576   C99.231125,418.507233 99.133995,433.383453 99.087959,448.259827   C99.086174,448.837921 99.574150,449.417480 99.833908,449.996368   C105.344978,450.268524 110.854225,450.657257 116.368202,450.743591   C118.080154,450.770416 119.804962,449.976990 121.834991,449.483429   C121.834991,446.983795 121.834991,444.363831 121.834991,441.372284   C124.185753,441.372284 126.252411,441.372284 128.663635,441.372284   C128.663635,446.574066 128.663635,451.976746 128.663635,457.691772   C114.303375,457.691772 99.916092,457.691772 85.263596,457.691772   C85.263596,455.558289 85.263596,453.490417 85.263596,451.245575   C87.160492,451.059540 88.936684,450.885345 91.214081,450.037170   C91.799591,434.666626 91.897476,419.970184 91.926468,405.273560   C91.927856,404.569305 91.321060,403.863831 90.997482,403.158936  z"/>
<path fill="#564DE6" opacity="1.000000" stroke="none" d=" M290.755890,237.290741   C286.862488,233.395493 283.058350,229.897354 279.686493,226.022980   C278.821655,225.029266 278.554413,222.107346 279.310272,221.324921   C288.886658,211.412445 298.688782,201.717575 308.481110,192.015427   C309.102448,191.399841 310.118256,191.182388 311.429718,190.547913   C309.939636,208.844284 304.863586,225.585876 296.989136,242.715118   C294.930573,240.937302 292.968231,239.242615 290.755890,237.290741  z"/>
<path fill="#544BE6" opacity="1.000000" stroke="none" d=" M222.858459,73.020668   C229.548676,75.483734 235.829269,77.920998 242.011749,80.320190   C235.542480,86.669777 229.302765,92.794052 223.353333,98.633408   C212.998398,88.266411 201.919891,77.174995 189.906052,65.147156   C201.269867,67.887550 211.859329,70.441216 222.858459,73.020668  z"/>
<path fill="#5148E5" opacity="1.000000" stroke="none" d=" M67.883057,172.851364   C70.196556,159.688293 74.410004,147.621964 79.666687,136.592911   C85.821144,142.760147 91.835655,148.787140 97.483833,154.447037   C87.989578,163.915833 77.445816,174.431305 66.038368,185.808151   C66.683250,181.371399 67.270943,177.328110 67.883057,172.851364  z"/>
<path fill="#524AE5" opacity="1.000000" stroke="none" d=" M163.682587,307.360291   C153.805237,303.967651 144.293945,300.785400 135.154312,297.727478   C141.751602,291.116699 147.764694,285.091309 153.404953,279.439514   C163.242401,289.259583 174.102661,300.100708 185.627411,311.605164   C178.203415,310.217133 171.126038,308.893921 163.682587,307.360291  z"/>
<path fill="#182032" opacity="1.000000" stroke="none" d=" M175.678925,346.278198   C166.474335,337.722717 157.478470,329.454437 148.579102,321.083527   C147.354187,319.931335 146.608170,318.269989 146.107117,316.417999   C163.739807,325.378418 182.800125,327.090088 203.279953,329.603943   C195.932892,336.893738 189.839767,343.344482 183.158356,349.113983   C182.201431,349.940308 178.402054,347.474945 175.678925,346.278198  z"/>
<path fill="#131B2E" opacity="1.000000" stroke="none" d=" M53.703938,167.623901   C51.883373,178.988358 50.061913,190.007721 48.139603,201.637222   C46.555847,200.400070 44.818378,199.271225 43.356430,197.857468   C39.177189,193.815918 35.322109,189.412460 30.930191,185.626160   C27.526031,182.691422 27.900383,179.812119 30.350082,177.110199   C39.331192,167.204391 48.519909,157.486526 57.669010,147.734070   C58.162094,147.208481 59.006512,147.012466 60.765331,146.109787   C58.181007,153.856247 55.942024,160.567535 53.703938,167.623901  z"/>
<path fill="#121A2D" opacity="1.000000" stroke="none" d=" M187.688095,35.689186   C188.172928,35.203945 188.402283,34.962593 188.643997,34.734344   C191.055328,32.457520 193.196564,28.924276 195.971603,28.324242   C198.020706,27.881168 201.172302,30.966749 203.357269,32.992863   C213.006073,41.940140 222.482681,51.073078 231.554932,60.977310   C214.074097,52.742691 195.690979,49.611355 175.066757,48.643307   C179.825317,43.756836 183.631836,39.848000 187.688095,35.689186  z"/>
<path fill="#121A2D" opacity="1.000000" stroke="none" d=" M344.811951,203.733856   C338.196930,211.147903 331.905640,218.380981 325.315857,225.331009   C322.869202,227.911392 319.722717,229.828171 316.256561,231.836060   C325.015472,214.633575 327.827759,196.067139 329.300964,177.765411   C336.007904,184.296066 342.705383,190.817490 349.559937,197.491837   C348.180847,199.297775 346.599030,201.369186 344.811951,203.733856  z"/>
<path fill="#FFFFFF" opacity="1.000000" stroke="none" d=" M266.946716,403.095520   C259.616608,402.866791 259.616608,402.866791 260.366638,395.000092   C265.729675,395.000092 271.151428,394.980713 276.572968,395.008514   C279.146576,395.021729 281.933929,394.312897 282.093475,398.620117   C282.249023,402.819489 280.034119,403.288574 276.040894,403.284027   C275.172516,418.467316 275.092163,433.390869 275.063751,448.314575   C275.062683,448.875641 275.565521,449.437653 275.833527,449.999237   C277.643799,450.494446 279.454071,450.989685 281.676178,451.597565   C281.676178,453.210205 281.676178,455.282043 281.676178,457.679504   C274.775848,457.679504 267.738495,457.679504 260.348999,457.679504   C260.348999,455.720306 260.348999,453.677094 260.348999,451.431458   C262.218689,451.060791 264.216003,450.664795 266.861267,449.792023   C267.625305,434.474701 267.751526,419.634247 267.818390,404.793518   C267.820953,404.228821 267.250275,403.661591 266.946716,403.095520  z"/>
<path fill="#DFE7FF" opacity="1.000000" stroke="none" d=" M275.909973,449.535461   C275.565521,449.437653 275.062683,448.875641 275.063751,448.314575   C275.092163,433.390869 275.172516,418.467316 275.622070,403.354675   C275.995544,418.467651 275.990967,433.769653 275.909973,449.535461  z"/>
<path fill="#FFFFFF" opacity="1.000000" stroke="none" d=" M266.970184,403.555603   C267.250275,403.661591 267.820953,404.228821 267.818390,404.793518   C267.751526,419.634247 267.625305,434.474701 267.226715,449.611481   C266.960663,434.610382 266.977142,419.313019 266.970184,403.555603  z"/>
<path fill="#FFFFFF" opacity="1.000000" stroke="none" d=" M99.908974,449.532410   C99.574150,449.417480 99.086174,448.837921 99.087959,448.259827   C99.133995,433.383453 99.231125,418.507233 99.660278,403.396423   C99.995468,418.464050 99.989754,433.766235 99.908974,449.532410  z"/>
</svg>