<svg xmlns="http://www.w3.org/2000/svg" xmlns:xlink="http://www.w3.org/1999/xlink" version="1.1" id="Layer_1" x="0px" y="0px" width="100%" viewBox="0 0 373 515" enable-background="new 0 0 373 515" xml:space="preserve">

<path fill="#5047E5" opacity="1.000000" stroke="none" d=" M165.734116,259.356873   C140.184296,251.772934 119.635849,228.540466 115.891670,201.837357   C113.002838,181.234451 116.485863,162.442322 128.761292,145.390488   C138.096603,132.422791 150.552658,123.895248 165.604980,119.228951   C184.352066,113.417236 202.859711,115.221695 220.248825,123.829758   C238.735413,132.981110 251.125580,147.947311 257.322998,167.735001   C264.271484,189.920715 261.126770,210.902054 248.351303,230.122391   C235.785431,249.027359 218.060089,259.590942 195.200317,262.240875   C185.068222,263.415405 175.666504,261.713470 165.734116,259.356873  z"/>
<path fill="#3370FF" opacity="1.000000" stroke="none" d=" M277.298187,295.300720   C249.620651,309.399353 220.806870,315.379852 188.816376,312.265350   C190.728180,310.028229 191.577332,308.889374 192.570709,307.894501   C203.509521,296.939423 214.380859,285.913635 225.518295,275.163696   C227.284592,273.458862 230.244736,272.222870 232.707397,272.123749   C264.871674,270.828857 293.853699,260.973480 319.439362,241.162750   C330.831268,232.342087 340.693481,222.204269 349.093506,210.551910   C349.737854,209.658081 351.085052,209.270905 352.105560,208.648224   C352.524597,208.950394 352.943634,209.252563 353.362640,209.554733   C352.357574,211.785599 351.258392,213.979416 350.362793,216.253403   C345.004761,229.857620 337.286652,241.994736 328.196686,253.416992   C317.706116,266.599213 305.400177,277.691864 291.451080,287.000671   C287.014771,289.961212 282.230652,292.400604 277.298187,295.300720  z"/>
<path fill="#3370FF" opacity="1.000000" stroke="none" d=" M47.772949,143.726501   C39.212513,152.958817 30.901217,161.933151 22.589920,170.907486   C33.883488,136.251572 55.257126,109.236641 85.943329,90.141907   C116.212219,71.306847 149.376068,62.576534 185.472458,66.521782   C180.287994,72.227547 175.118698,78.182770 169.658661,83.858315   C162.846222,90.939629 155.847305,97.845222 148.793320,104.686882   C147.622604,105.822357 145.749191,106.918709 144.219070,106.893814   C125.944954,106.596519 108.467148,110.518196 91.592514,117.074883   C77.606194,122.509293 64.600189,129.846573 53.010788,139.514542   C51.381935,140.873352 49.686634,142.152496 47.772949,143.726501  z"/>
<path fill="#3370FF" opacity="1.000000" stroke="none" d=" M225.220215,30.688881   C240.225616,38.624237 253.391205,48.529053 264.854706,60.441093   C286.744232,83.187119 301.152222,110.195717 307.812775,141.036102   C310.912537,155.388947 311.647675,170.111038 310.969818,184.833969   C310.927948,185.743515 310.514404,186.635925 310.117767,188.120041   C308.782318,187.004547 307.772888,186.282684 306.905334,185.418365   C295.460541,174.016006 283.907532,162.716599 272.723419,151.063385   C270.697388,148.952362 269.202393,145.385956 269.156921,142.465042   C268.662720,110.730286 258.897003,82.096649 239.365463,57.309898   C230.810791,46.453484 219.927811,37.426979 210.042618,27.629528   C208.757599,26.355928 207.115814,25.442280 205.639267,24.361917   C206.047958,23.758429 206.456635,23.154940 206.865326,22.551451   C212.899124,25.169174 218.932938,27.786898 225.220215,30.688881  z"/>
<path fill="#3370FF" opacity="1.000000" stroke="none" d=" M66.355759,192.160065   C78.999069,204.491684 91.310059,216.679688 103.456505,229.029510   C104.787506,230.382782 105.848442,232.648438 105.896797,234.520294   C106.742676,267.262238 116.575943,296.808289 136.481613,322.980560   C145.295547,334.569214 155.257278,344.870117 167.385666,352.976593   C168.584991,353.778168 170.108505,354.094727 171.481552,354.636383   C170.844528,355.319153 170.207520,356.001892 169.570496,356.684662   C156.810715,352.266083 144.961182,345.970123 133.868576,338.307831   C113.383415,324.157562 97.093132,306.155640 84.991432,284.346191   C74.846802,266.063782 68.117538,246.703171 66.006493,225.845047   C65.212440,217.999451 64.389008,210.138031 64.131180,202.265747   C64.020584,198.888840 65.317802,195.465805 66.355759,192.160065  z"/>
<path fill="#534AE5" opacity="1.000000" stroke="none" d=" M289.755005,210.752808   C296.665527,204.890244 300.513000,196.278793 309.943329,191.556458   C308.032166,210.336304 303.198730,226.992310 295.979523,242.288696   C289.810547,236.071167 283.542938,229.754211 277.074982,223.235306   C280.490448,219.874191 284.997772,215.438629 289.755005,210.752808  z"/>
<path fill="#5148E5" opacity="1.000000" stroke="none" d=" M68.989105,166.025711   C72.232208,155.716156 75.455276,145.827911 78.512123,136.449661   C85.027199,143.005859 91.267868,149.285919 97.308632,155.364807   C87.743752,164.956390 76.980827,175.749359 66.217903,186.542328   C65.858780,186.540665 65.499664,186.539001 65.140549,186.537323   C66.416733,179.840561 67.692909,173.143784 68.989105,166.025711  z"/>
<path fill="#534AE6" opacity="1.000000" stroke="none" d=" M142.208344,288.209106   C145.379333,284.791901 148.300156,281.624603 150.879105,278.828003   C162.321899,290.236145 173.194321,301.075653 184.413681,312.261017   C166.708069,310.132690 149.828079,305.667145 132.990982,297.029663   C136.274017,293.891846 139.116104,291.175415 142.208344,288.209106  z"/>
<path fill="#5148E5" opacity="1.000000" stroke="none" d=" M232.747757,89.748611   C229.268570,93.343330 226.039337,96.688194 222.894180,99.945976   C211.972382,88.998863 201.320023,78.321800 189.906754,66.882072   C208.400345,67.830498 224.619507,73.997902 241.793259,81.163422   C238.443542,84.337860 235.720627,86.918312 232.747757,89.748611  z"/>
<path fill="#171F31" opacity="1.000000" stroke="none" d=" M160.235886,334.860840   C155.024307,329.669708 150.108231,324.680328 145.192154,319.690979   C145.503571,319.289062 145.814987,318.887146 146.126389,318.485229   C154.926346,321.035156 163.632751,323.997894 172.552505,326.019043   C181.506943,328.048096 190.674011,329.138794 201.085434,330.862091   C194.821182,337.427032 189.255127,343.676666 183.212921,349.425964   C179.935333,352.544678 177.184982,349.345398 174.736298,347.295380   C169.945450,343.284515 165.260284,339.147430 160.235886,334.860840  z"/>
<path fill="#131B2E" opacity="1.000000" stroke="none" d=" M49.901329,188.830383   C49.328072,193.523865 48.783577,197.833160 48.298733,201.670334   C41.530006,194.826523 34.835224,188.057480 27.418758,180.558762   C37.539753,169.391052 48.602818,157.183853 59.665886,144.976654   C60.260334,145.384369 60.854786,145.792084 61.449234,146.199814   C60.380779,148.620834 59.278889,151.027756 58.249596,153.465317   C53.522774,164.659271 50.678867,176.304459 49.901329,188.830383  z"/>
<path fill="#141C2F" opacity="1.000000" stroke="none" d=" M318.209961,223.302368   C324.975739,208.407578 326.568787,192.849899 327.321838,176.296005   C334.363983,183.222549 340.859619,189.517258 347.176788,195.986237   C347.742523,196.565567 347.626556,198.667389 347.022980,199.395111   C342.503540,204.844345 337.805023,210.146301 333.115875,215.453140   C329.401733,219.656494 325.740326,223.917694 321.821289,227.924103   C319.802856,229.987488 317.273468,231.551071 314.167938,232.712463   C315.465515,229.694244 316.763123,226.676025 318.209961,223.302368  z"/>
</svg>